<mxfile host="app.diagrams.net" agent="Mozilla/5.0 (Windows NT 10.0; Win64; x64) AppleWebKit/537.36 (KHTML, like Gecko) Chrome/127.0.0.0 Safari/537.36" version="24.7.6">
  <diagram name="Page-1" id="e7e014a7-5840-1c2e-5031-d8a46d1fe8dd">
    <mxGraphModel dx="880" dy="512" grid="1" gridSize="10" guides="1" tooltips="1" connect="1" arrows="1" fold="1" page="1" pageScale="1" pageWidth="1169" pageHeight="826" background="none" math="0" shadow="0">
      <root>
        <mxCell id="0" />
        <mxCell id="1" parent="0" />
        <mxCell id="2" value="CLIENTE" style="swimlane;whiteSpace=wrap;startSize=23;" parent="1" vertex="1">
          <mxGeometry x="164.5" y="128" width="280" height="570" as="geometry" />
        </mxCell>
        <mxCell id="5" value="" style="ellipse;shape=startState;fillColor=#000000;strokeColor=#ff0000;" parent="2" vertex="1">
          <mxGeometry x="100" y="40" width="30" height="30" as="geometry" />
        </mxCell>
        <mxCell id="6" value="" style="edgeStyle=elbowEdgeStyle;elbow=horizontal;verticalAlign=bottom;endArrow=open;endSize=8;strokeColor=#FF0000;endFill=1;rounded=0" parent="2" source="5" edge="1">
          <mxGeometry x="100" y="40" as="geometry">
            <mxPoint x="115.5" y="110" as="targetPoint" />
          </mxGeometry>
        </mxCell>
        <mxCell id="GLRKMn68qCk0zSHGL9mv-42" value="Selecciona producto" style="strokeWidth=2;html=1;shape=mxgraph.flowchart.terminator;whiteSpace=wrap;" vertex="1" parent="2">
          <mxGeometry x="40" y="112" width="150" height="40" as="geometry" />
        </mxCell>
        <mxCell id="GLRKMn68qCk0zSHGL9mv-48" value="Confirma pedido" style="strokeWidth=2;html=1;shape=mxgraph.flowchart.terminator;whiteSpace=wrap;" vertex="1" parent="2">
          <mxGeometry x="40" y="222" width="150" height="40" as="geometry" />
        </mxCell>
        <mxCell id="3" value="ALMACEN" style="swimlane;whiteSpace=wrap" parent="1" vertex="1">
          <mxGeometry x="444.5" y="128" width="280" height="570" as="geometry" />
        </mxCell>
        <mxCell id="38" value="" style="ellipse;shape=endState;fillColor=#000000;strokeColor=#ff0000" parent="3" vertex="1">
          <mxGeometry x="125.5" y="342" width="30" height="30" as="geometry" />
        </mxCell>
        <mxCell id="GLRKMn68qCk0zSHGL9mv-45" value="Verifica stock" style="strokeWidth=2;html=1;shape=mxgraph.flowchart.terminator;whiteSpace=wrap;" vertex="1" parent="3">
          <mxGeometry x="65.5" y="112" width="150" height="40" as="geometry" />
        </mxCell>
        <mxCell id="GLRKMn68qCk0zSHGL9mv-54" style="edgeStyle=orthogonalEdgeStyle;rounded=0;orthogonalLoop=1;jettySize=auto;html=1;" edge="1" parent="3" source="GLRKMn68qCk0zSHGL9mv-49" target="38">
          <mxGeometry relative="1" as="geometry" />
        </mxCell>
        <mxCell id="GLRKMn68qCk0zSHGL9mv-49" value="Confirma pedido" style="strokeWidth=2;html=1;shape=mxgraph.flowchart.terminator;whiteSpace=wrap;" vertex="1" parent="3">
          <mxGeometry x="65.5" y="222" width="150" height="40" as="geometry" />
        </mxCell>
        <mxCell id="GLRKMn68qCk0zSHGL9mv-43" value="" style="html=1;overflow=block;blockSpacing=1;whiteSpace=wrap;shape=image;fontSize=13;spacing=0;strokeColor=none;strokeOpacity=100;rounded=1;absoluteArcSize=1;arcSize=12;strokeWidth=0;image=https://images.lucid.app/images/fa8e6075-e88b-4422-9192-2d6f32c575b4/content;imageAspect=0;lucidId=6BeSeH99jEg4;" vertex="1" parent="1">
          <mxGeometry x="29.5" y="160" width="131" height="86" as="geometry" />
        </mxCell>
        <mxCell id="GLRKMn68qCk0zSHGL9mv-44" value="GESTIONAR PEDIDO" style="html=1;overflow=block;blockSpacing=1;whiteSpace=wrap;fontSize=13;fontColor=default;align=center;spacing=0;strokeColor=#unset;fillOpacity=0;rounded=1;absoluteArcSize=1;arcSize=12;fillColor=#ffffff;strokeWidth=NaN;lucidId=6BeSlnCFW9wQ;" vertex="1" parent="1">
          <mxGeometry x="29.5" y="246" width="135" height="30" as="geometry" />
        </mxCell>
        <mxCell id="GLRKMn68qCk0zSHGL9mv-47" style="edgeStyle=orthogonalEdgeStyle;rounded=0;orthogonalLoop=1;jettySize=auto;html=1;" edge="1" parent="1" source="GLRKMn68qCk0zSHGL9mv-42" target="GLRKMn68qCk0zSHGL9mv-45">
          <mxGeometry relative="1" as="geometry" />
        </mxCell>
        <mxCell id="GLRKMn68qCk0zSHGL9mv-50" style="rounded=0;orthogonalLoop=1;jettySize=auto;html=1;entryX=1;entryY=0.5;entryDx=0;entryDy=0;entryPerimeter=0;" edge="1" parent="1" target="GLRKMn68qCk0zSHGL9mv-48">
          <mxGeometry relative="1" as="geometry">
            <mxPoint x="500" y="270" as="sourcePoint" />
          </mxGeometry>
        </mxCell>
        <mxCell id="GLRKMn68qCk0zSHGL9mv-52" style="edgeStyle=orthogonalEdgeStyle;rounded=0;orthogonalLoop=1;jettySize=auto;html=1;entryX=0;entryY=0.5;entryDx=0;entryDy=0;entryPerimeter=0;" edge="1" parent="1" source="GLRKMn68qCk0zSHGL9mv-48" target="GLRKMn68qCk0zSHGL9mv-49">
          <mxGeometry relative="1" as="geometry" />
        </mxCell>
      </root>
    </mxGraphModel>
  </diagram>
</mxfile>
